<svg width="58" height="58" viewBox="0 0 58 58" fill="none" xmlns="http://www.w3.org/2000/svg">
<path d="M19.8106 35.6336C20.3768 36.0376 21.0551 36.2544 21.7506 36.2537C22.4461 36.2531 23.1239 36.035 23.6894 35.63C24.2546 35.2075 24.6842 34.6293 24.9255 33.9661L26.1834 30.0983C26.4851 29.187 26.9955 28.3588 27.674 27.6797C28.3524 27.0007 29.1801 26.4895 30.0911 26.1869L34.0279 24.9073C34.6881 24.6705 35.2572 24.2322 35.6547 23.6544C36.0523 23.0765 36.2582 22.3884 36.2433 21.6871C36.2285 20.9859 35.9937 20.3071 35.5721 19.7466C35.1505 19.1861 34.5634 18.7722 33.8937 18.5635L30.0186 17.3093C29.1067 17.008 28.2778 16.4978 27.598 15.8193C26.9183 15.1409 26.4065 14.3129 26.1036 13.4015L24.824 9.47202C24.5918 8.82312 24.1642 8.2621 23.6001 7.86613C23.036 7.47016 22.3631 7.25867 21.6739 7.26077C20.9748 7.2578 20.2925 7.47458 19.7233 7.88047C19.1541 8.28637 18.7269 8.86087 18.502 9.52277L17.2115 13.474C16.9084 14.3584 16.4093 15.1628 15.7514 15.8269C15.0935 16.4911 14.2939 16.9978 13.4125 17.3093L9.48299 18.5816C8.82653 18.8136 8.25879 19.2446 7.8589 19.8146C7.459 20.3845 7.24686 21.065 7.25205 21.7613C7.25723 22.4575 7.47949 23.1347 7.88783 23.6987C8.29618 24.2626 8.87027 24.6851 9.53012 24.9073L13.398 26.1651C14.3112 26.4702 15.1408 26.9839 15.8209 27.6653C16.5011 28.3468 17.0132 29.1773 17.3166 30.091L18.5926 34.006C18.821 34.6585 19.2487 35.2276 19.8142 35.63M38.193 50.2062C38.6843 50.5554 39.2722 50.743 39.875 50.7426C40.4837 50.7365 41.0754 50.5414 41.5684 50.1842C42.0613 49.827 42.431 49.3254 42.6264 48.7489L43.5254 45.9866C43.7175 45.4139 44.0437 44.8883 44.4679 44.4605C44.892 44.0328 45.4176 43.7101 45.9904 43.5216L48.7889 42.6081C49.3677 42.4097 49.8689 42.0332 50.2208 41.5326C50.5727 41.032 50.7572 40.4329 50.7479 39.8211C50.7387 39.2092 50.5361 38.616 50.1693 38.1263C49.8024 37.6365 49.2901 37.2754 48.7055 37.0945L45.936 36.1919C45.3634 36.0001 44.8429 35.6784 44.4153 35.252C43.9877 34.8257 43.6645 34.3062 43.471 33.7341L42.5575 30.9284C42.361 30.3522 41.9881 29.8524 41.4917 29.5C40.9953 29.1475 40.4005 28.9602 39.7917 28.9647C39.183 28.9691 38.591 29.165 38.0998 29.5246C37.6085 29.8842 37.2429 30.3893 37.0547 30.9683L36.1594 33.7305C35.9747 34.2984 35.6614 34.816 35.2439 35.2429C34.8264 35.6698 34.316 35.9946 33.7524 36.1919L30.9394 37.109C30.5136 37.2571 30.1281 37.5023 29.8137 37.8254C29.4992 38.1484 29.2644 38.5403 29.1279 38.9699C28.9914 39.3996 28.9569 39.8551 29.0272 40.3004C29.0975 40.7457 29.2706 41.1685 29.5329 41.5351C29.8917 42.0426 30.3992 42.4233 30.9829 42.6227L33.7487 43.518C34.3233 43.7117 34.845 44.0361 35.2727 44.4657C35.7005 44.8954 36.0226 45.4185 36.2137 45.9939L37.1309 48.7996C37.3295 49.3668 37.6993 49.8583 38.1894 50.2062" fill="#06B6D4"/>
</svg>
