<svg width="57" height="57" viewBox="0 0 57 57" fill="none" xmlns="http://www.w3.org/2000/svg">
<path fill-rule="evenodd" clip-rule="evenodd" d="M28.5 49.875C31.307 49.875 34.0865 49.3221 36.6799 48.2479C39.2732 47.1737 41.6296 45.5993 43.6144 43.6144C45.5993 41.6296 47.1737 39.2732 48.2479 36.6799C49.3221 34.0865 49.875 31.307 49.875 28.5C49.875 25.693 49.3221 22.9135 48.2479 20.3201C47.1737 17.7268 45.5993 15.3704 43.6144 13.3856C41.6296 11.4007 39.2732 9.82627 36.6799 8.75207C34.0865 7.67788 31.307 7.125 28.5 7.125C22.831 7.125 17.3942 9.377 13.3856 13.3856C9.377 17.3942 7.125 22.831 7.125 28.5C7.125 34.169 9.377 39.6058 13.3856 43.6144C17.3942 47.623 22.831 49.875 28.5 49.875ZM27.949 37.145L39.824 22.895L36.176 19.855L25.9635 32.1076L20.6791 26.8209L17.3209 30.1791L24.4459 37.3041L26.2841 39.1424L27.949 37.145Z" fill="#00C3D0"/>
</svg>
