<svg width="36" height="36" viewBox="0 0 36 36" fill="none" xmlns="http://www.w3.org/2000/svg">
<path fill-rule="evenodd" clip-rule="evenodd" d="M13.8285 4.84413C13.9332 4.73972 14.0574 4.65697 14.1941 4.60061C14.3307 4.54424 14.4772 4.51536 14.625 4.51563H21.375C21.6734 4.51563 21.9595 4.63415 22.1705 4.84513C22.3815 5.05611 22.5 5.34226 22.5 5.64063V10.1474C22.5 10.4457 22.3815 10.7319 22.1705 10.9429C21.9595 11.1539 21.6734 11.2724 21.375 11.2724H19.1182V15.7499H29.2432C29.5416 15.7499 29.8278 15.8684 30.0387 16.0794C30.2497 16.2904 30.3682 16.5765 30.3682 16.8749V22.4999H32.625C32.9234 22.4999 33.2095 22.6184 33.4205 22.8294C33.6315 23.0404 33.75 23.3265 33.75 23.6249V28.1249C33.75 28.4232 33.6315 28.7094 33.4205 28.9204C33.2095 29.1314 32.9234 29.2499 32.625 29.2499H25.875C25.5766 29.2499 25.2905 29.1314 25.0795 28.9204C24.8685 28.7094 24.75 28.4232 24.75 28.1249V23.6249C24.75 23.3265 24.8685 23.0404 25.0795 22.8294C25.2905 22.6184 25.5766 22.4999 25.875 22.4999H28.1182V17.9999H19.1182V22.4999H21.375C21.6734 22.4999 21.9595 22.6184 22.1705 22.8294C22.3815 23.0404 22.5 23.3265 22.5 23.6249V28.1249C22.5 28.4232 22.3815 28.7094 22.1705 28.9204C21.9595 29.1314 21.6734 29.2499 21.375 29.2499H14.625C14.3266 29.2499 14.0405 29.1314 13.8295 28.9204C13.6185 28.7094 13.5 28.4232 13.5 28.1249V23.6249C13.5 23.3265 13.6185 23.0404 13.8295 22.8294C14.0405 22.6184 14.3266 22.4999 14.625 22.4999H16.8683V17.9999H7.86825V22.4999H10.125C10.4234 22.4999 10.7095 22.6184 10.9205 22.8294C11.1315 23.0404 11.25 23.3265 11.25 23.6249V28.1249C11.25 28.4232 11.1315 28.7094 10.9205 28.9204C10.7095 29.1314 10.4234 29.2499 10.125 29.2499H3.375C3.07663 29.2499 2.79048 29.1314 2.5795 28.9204C2.36853 28.7094 2.25 28.4232 2.25 28.1249V23.6249C2.25 23.3265 2.36853 23.0404 2.5795 22.8294C2.79048 22.6184 3.07663 22.4999 3.375 22.4999H5.61825V16.8749C5.61825 16.5765 5.73678 16.2904 5.94776 16.0794C6.15873 15.8684 6.44488 15.7499 6.74325 15.7499H16.8683V11.2724H14.625C14.3266 11.2724 14.0405 11.1539 13.8295 10.9429C13.6185 10.7319 13.5 10.4457 13.5 10.1474V5.64288C13.4997 5.49504 13.5286 5.3486 13.585 5.21193C13.6413 5.07526 13.7241 4.9488 13.8285 4.84413Z" fill="#00C3D0"/>
</svg>
