<svg width="50" height="50" viewBox="0 0 50 50" fill="none" xmlns="http://www.w3.org/2000/svg">
<path d="M20.8334 8.33342V16.6667H29.1667V8.33342H20.8334ZM33.3334 8.33342V16.6667H41.6667V8.33342H33.3334ZM33.3334 20.8334V29.1667H41.6667V20.8334H33.3334ZM33.3334 33.3334V41.6668H41.6667V33.3334H33.3334ZM29.1667 41.6668V33.3334H20.8334V41.6668H29.1667ZM16.6667 41.6668V33.3334H8.33335V41.6668H16.6667ZM16.6667 29.1667V20.8334H8.33335V29.1667H16.6667ZM16.6667 16.6667V8.33342H8.33335V16.6667H16.6667ZM20.8334 29.1667H29.1667V20.8334H20.8334V29.1667ZM8.33335 4.16675H41.6667C42.7718 4.16675 43.8316 4.60573 44.613 5.38714C45.3944 6.16854 45.8334 7.22835 45.8334 8.33342V41.6668C45.8334 42.7718 45.3944 43.8316 44.613 44.613C43.8316 45.3944 42.7718 45.8334 41.6667 45.8334H8.33335C6.08335 45.8334 4.16669 43.9584 4.16669 41.6668V8.33342C4.16669 7.22835 4.60567 6.16854 5.38708 5.38714C6.16848 4.60573 7.22829 4.16675 8.33335 4.16675Z" fill="#06B6D4"/>
</svg>
