<svg width="36" height="36" viewBox="0 0 36 36" fill="none" xmlns="http://www.w3.org/2000/svg">
<path d="M13.4999 28.5V25.5H8.51243C8.01243 25.5 7.66243 25.275 7.46243 24.825C7.26243 24.375 7.32493 23.975 7.64993 23.625L16.8749 13.275C17.1749 12.925 17.5499 12.75 17.9999 12.75C18.4499 12.75 18.8249 12.925 19.1249 13.275L28.3499 23.625C28.6749 23.975 28.7374 24.375 28.5374 24.825C28.3374 25.275 27.9874 25.5 27.4874 25.5H22.4999V28.5C22.4999 28.925 22.3559 29.2815 22.0679 29.5695C21.7799 29.8575 21.4239 30.001 20.9999 30H14.9999C14.5749 30 14.2189 29.856 13.9319 29.568C13.6449 29.28 13.5009 28.924 13.4999 28.5ZM17.9999 9L10.4624 17.5125C10.3124 17.6625 10.1374 17.7815 9.93743 17.8695C9.73743 17.9575 9.53743 18.001 9.33743 18C8.68743 18 8.23143 17.7125 7.96943 17.1375C7.70743 16.5625 7.78843 16.025 8.21243 15.525L16.8749 5.775C17.1749 5.425 17.5499 5.25 17.9999 5.25C18.4499 5.25 18.8249 5.425 19.1249 5.775L27.7874 15.525C28.2124 16.025 28.2939 16.5625 28.0319 17.1375C27.7699 17.7125 27.3134 18 26.6624 18C26.4624 18 26.2624 17.9625 26.0624 17.8875C25.8624 17.8125 25.6874 17.6875 25.5374 17.5125L17.9999 9Z" fill="#00C3D0"/>
</svg>
