<svg width="36" height="36" viewBox="0 0 36 36" fill="none" xmlns="http://www.w3.org/2000/svg">
<path d="M7.5 31.5C6.675 31.5 5.969 31.2065 5.382 30.6195C4.795 30.0325 4.501 29.326 4.5 28.5V7.5C4.5 6.675 4.794 5.969 5.382 5.382C5.97 4.795 6.676 4.501 7.5 4.5H28.5C29.325 4.5 30.0315 4.794 30.6195 5.382C31.2075 5.97 31.501 6.676 31.5 7.5V17.55C31.025 17.325 30.5375 17.1315 30.0375 16.9695C29.5375 16.8075 29.025 16.6885 28.5 16.6125V7.5H7.5V28.5H16.575C16.65 29.05 16.769 29.575 16.932 30.075C17.095 30.575 17.2885 31.05 17.5125 31.5H7.5ZM7.5 27V28.5V7.5V16.6125V16.5V27ZM10.5 25.5H16.6125C16.6875 24.975 16.8065 24.4625 16.9695 23.9625C17.1325 23.4625 17.3135 22.975 17.5125 22.5H10.5V25.5ZM10.5 19.5H19.65C20.45 18.75 21.344 18.125 22.332 17.625C23.32 17.125 24.376 16.7875 25.5 16.6125V16.5H10.5V19.5ZM10.5 13.5H25.5V10.5H10.5V13.5ZM27 34.5C24.925 34.5 23.1565 33.7685 21.6945 32.3055C20.2325 30.8425 19.501 29.074 19.5 27C19.499 24.926 20.2305 23.1575 21.6945 21.6945C23.1585 20.2315 24.927 19.5 27 19.5C29.073 19.5 30.842 20.2315 32.307 21.6945C33.772 23.1575 34.503 24.926 34.5 27C34.497 29.074 33.7655 30.843 32.3055 32.307C30.8455 33.771 29.077 34.502 27 34.5ZM26.25 31.5H27.75V27.75H31.5V26.25H27.75V22.5H26.25V26.25H22.5V27.75H26.25V31.5Z" fill="#00C3D0"/>
</svg>
