<svg width="64" height="64" viewBox="0 0 64 64" fill="none" xmlns="http://www.w3.org/2000/svg">
<rect width="64" height="64" rx="4" fill="#E9E8E7"/>
<path d="M45.3333 42.0003C47.1667 42.0003 48.65 40.5003 48.65 38.667L48.6667 22.0003C48.6667 20.167 47.1667 18.667 45.3333 18.667H18.6667C16.8333 18.667 15.3333 20.167 15.3333 22.0003V38.667C15.3333 40.5003 16.8333 42.0003 18.6667 42.0003H13.6667C12.75 42.0003 12 42.7503 12 43.667C12 44.5837 12.75 45.3337 13.6667 45.3337H50.3333C51.25 45.3337 52 44.5837 52 43.667C52 42.7503 51.25 42.0003 50.3333 42.0003H45.3333ZM20.3333 22.0003H43.6667C44.5833 22.0003 45.3333 22.7503 45.3333 23.667V37.0003C45.3333 37.917 44.5833 38.667 43.6667 38.667H20.3333C19.4167 38.667 18.6667 37.917 18.6667 37.0003V23.667C18.6667 22.7503 19.4167 22.0003 20.3333 22.0003Z" fill="#4C4546"/>
</svg>
