<svg width="41" height="41" viewBox="0 0 41 41" fill="none" xmlns="http://www.w3.org/2000/svg">
<path fill-rule="evenodd" clip-rule="evenodd" d="M20.4998 3.4165C29.935 3.4165 37.5832 11.0647 37.5832 20.4998C37.5832 29.935 29.935 37.5832 20.4998 37.5832C11.0647 37.5832 3.4165 29.935 3.4165 20.4998C3.4165 11.0647 11.0647 3.4165 20.4998 3.4165ZM20.4998 22.2082C18.4195 22.2083 16.4107 22.9676 14.8504 24.3436C14.5106 24.6433 14.3037 25.0657 14.2754 25.5179C14.247 25.9701 14.3995 26.4151 14.6992 26.7549C14.9989 27.0947 15.4213 27.3015 15.8735 27.3299C16.3257 27.3582 16.7707 27.2058 17.1105 26.9061C18.0466 26.0805 19.2517 25.625 20.4998 25.6248C21.7485 25.6218 22.9548 26.0778 23.8892 26.9061C24.229 27.206 24.674 27.3587 25.1264 27.3305C25.5788 27.3023 26.0014 27.0956 26.3013 26.7558C26.6013 26.4159 26.7539 25.9709 26.7257 25.5185C26.6976 25.0662 26.4908 24.6435 26.151 24.3436C24.5903 22.9672 22.5808 22.2078 20.4998 22.2082ZM14.5207 13.6665C13.8411 13.6665 13.1893 13.9365 12.7087 14.417C12.2281 14.8976 11.9582 15.5494 11.9582 16.229C11.9582 16.9086 12.2281 17.5604 12.7087 18.041C13.1893 18.5215 13.8411 18.7915 14.5207 18.7915C15.2003 18.7915 15.8521 18.5215 16.3326 18.041C16.8132 17.5604 17.0832 16.9086 17.0832 16.229C17.0832 15.5494 16.8132 14.8976 16.3326 14.417C15.8521 13.9365 15.2003 13.6665 14.5207 13.6665ZM26.479 13.6665C25.7994 13.6665 25.1476 13.9365 24.667 14.417C24.1865 14.8976 23.9165 15.5494 23.9165 16.229C23.9165 16.9086 24.1865 17.5604 24.667 18.041C25.1476 18.5215 25.7994 18.7915 26.479 18.7915C27.1586 18.7915 27.8104 18.5215 28.291 18.041C28.7715 17.5604 29.0415 16.9086 29.0415 16.229C29.0415 15.5494 28.7715 14.8976 28.291 14.417C27.8104 13.9365 27.1586 13.6665 26.479 13.6665Z" fill="#FF0000"/>
</svg>
