<svg width="50" height="50" viewBox="0 0 50 50" fill="none" xmlns="http://www.w3.org/2000/svg">
<path d="M45.6667 13.7917C45.4553 13.2826 45.0507 12.8781 44.5417 12.6667C44.2912 12.5599 44.0223 12.5033 43.75 12.5H33.3333C32.7808 12.5 32.2509 12.7195 31.8602 13.1102C31.4695 13.5009 31.25 14.0308 31.25 14.5833C31.25 15.1359 31.4695 15.6658 31.8602 16.0565C32.2509 16.4472 32.7808 16.6667 33.3333 16.6667H38.7292L27.0833 28.3125L20.2292 21.4375C20.0355 21.2422 19.8051 21.0872 19.5512 20.9815C19.2973 20.8757 19.025 20.8213 18.75 20.8213C18.475 20.8213 18.2027 20.8757 17.9488 20.9815C17.6949 21.0872 17.4645 21.2422 17.2708 21.4375L4.77085 33.9375C4.57558 34.1312 4.42059 34.3616 4.31482 34.6155C4.20906 34.8693 4.1546 35.1416 4.1546 35.4167C4.1546 35.6917 4.20906 35.964 4.31482 36.2179C4.42059 36.4717 4.57558 36.7022 4.77085 36.8958C4.96452 37.0911 5.19494 37.2461 5.44881 37.3519C5.70269 37.4576 5.97499 37.5121 6.25002 37.5121C6.52504 37.5121 6.79734 37.4576 7.05122 37.3519C7.30509 37.2461 7.53551 37.0911 7.72918 36.8958L18.75 25.8542L25.6042 32.7292C25.7979 32.9244 26.0283 33.0794 26.2821 33.1852C26.536 33.291 26.8083 33.3454 27.0833 33.3454C27.3584 33.3454 27.6307 33.291 27.8846 33.1852C28.1384 33.0794 28.3688 32.9244 28.5625 32.7292L41.6667 19.6042V25C41.6667 25.5525 41.8862 26.0824 42.2769 26.4731C42.6676 26.8638 43.1975 27.0833 43.75 27.0833C44.3025 27.0833 44.8325 26.8638 45.2232 26.4731C45.6139 26.0824 45.8333 25.5525 45.8333 25V14.5833C45.8301 14.3111 45.7734 14.0421 45.6667 13.7917Z" fill="#06B6D4"/>
</svg>
