<svg width="50" height="50" viewBox="0 0 50 50" fill="none" xmlns="http://www.w3.org/2000/svg">
<path d="M41.6667 12.5001C41.6667 7.98342 34.0354 4.16675 25 4.16675C15.9646 4.16675 8.33333 7.98342 8.33333 12.5001V16.6667C8.33333 21.1834 15.9646 25.0001 25 25.0001C34.0354 25.0001 41.6667 21.1834 41.6667 16.6667V12.5001ZM25 39.5834C15.9646 39.5834 8.33333 35.7668 8.33333 31.2501V37.5001C8.33333 42.0168 15.9646 45.8334 25 45.8334C34.0354 45.8334 41.6667 42.0168 41.6667 37.5001V31.2501C41.6667 35.7668 34.0354 39.5834 25 39.5834Z" fill="#06B6D4"/>
<path d="M41.6667 20.8333C41.6667 25.3499 34.0354 29.1666 25 29.1666C15.9646 29.1666 8.33333 25.3499 8.33333 20.8333V27.0833C8.33333 31.5999 15.9646 35.4166 25 35.4166C34.0354 35.4166 41.6667 31.5999 41.6667 27.0833V20.8333Z" fill="#06B6D4"/>
</svg>
