<svg width="50" height="50" viewBox="0 0 50 50" fill="none" xmlns="http://www.w3.org/2000/svg">
<path d="M19.375 12.5C19.4631 12.4987 19.5495 12.4752 19.626 12.4314C19.7025 12.3877 19.7667 12.3253 19.8125 12.25C19.8545 12.1733 19.8764 12.0874 19.8764 12C19.8764 11.9126 19.8545 11.8267 19.8125 11.75L14.5833 0.583333C14.4882 0.418971 14.3515 0.282519 14.1869 0.18766C14.0224 0.0928004 13.8358 0.0428673 13.6458 0.0428673C13.4559 0.0428673 13.2693 0.0928004 13.1048 0.18766C12.9402 0.282519 12.8035 0.418971 12.7083 0.583333L7.25001 11.75C7.20807 11.8267 7.18609 11.9126 7.18609 12C7.18609 12.0874 7.20807 12.1733 7.25001 12.25C7.29765 12.3283 7.36511 12.3927 7.44559 12.4366C7.52607 12.4805 7.6167 12.5023 7.70834 12.5H19.375ZM7.29168 42.1875C7.15354 42.1875 7.02107 42.2424 6.92339 42.34C6.82572 42.4377 6.77084 42.5702 6.77084 42.7083V43.2292C6.77084 45.0249 7.4842 46.7471 8.75397 48.0169C10.0238 49.2866 11.7459 50 13.5417 50C15.3374 50 17.0596 49.2866 18.3294 48.0169C19.5992 46.7471 20.3125 45.0249 20.3125 43.2292V42.7083C20.3125 42.5702 20.2576 42.4377 20.16 42.34C20.0623 42.2424 19.9298 42.1875 19.7917 42.1875H7.29168ZM40.1042 0H29.6875C28.8587 0 28.0639 0.32924 27.4778 0.915291C26.8917 1.50134 26.5625 2.2962 26.5625 3.125V5.72917C26.5625 5.8673 26.6174 5.99978 26.7151 6.09745C26.8127 6.19513 26.9452 6.25 27.0833 6.25H30.7292C31.0054 6.25 31.2704 6.35975 31.4657 6.5551C31.6611 6.75045 31.7708 7.0154 31.7708 7.29167C31.7708 7.56793 31.6611 7.83289 31.4657 8.02824C31.2704 8.22359 31.0054 8.33333 30.7292 8.33333H27.0833C26.9452 8.33333 26.8127 8.38821 26.7151 8.48588C26.6174 8.58356 26.5625 8.71603 26.5625 8.85417V14.0625C26.5625 14.2006 26.6174 14.3331 26.7151 14.4308C26.8127 14.5285 26.9452 14.5833 27.0833 14.5833H30.7292C31.0054 14.5833 31.2704 14.6931 31.4657 14.8884C31.6611 15.0838 31.7708 15.3487 31.7708 15.625C31.7708 15.9013 31.6611 16.1662 31.4657 16.3616C31.2704 16.5569 31.0054 16.6667 30.7292 16.6667H27.0833C26.9452 16.6667 26.8127 16.7215 26.7151 16.8192C26.6174 16.9169 26.5625 17.0494 26.5625 17.1875V22.3958C26.5625 22.534 26.6174 22.6664 26.7151 22.7641C26.8127 22.8618 26.9452 22.9167 27.0833 22.9167H30.7292C31.0054 22.9167 31.2704 23.0264 31.4657 23.2218C31.6611 23.4171 31.7708 23.6821 31.7708 23.9583C31.7708 24.2346 31.6611 24.4996 31.4657 24.6949C31.2704 24.8903 31.0054 25 30.7292 25H27.0833C26.9452 25 26.8127 25.0549 26.7151 25.1525C26.6174 25.2502 26.5625 25.3827 26.5625 25.5208V30.7292C26.5625 30.8673 26.6174 30.9998 26.7151 31.0975C26.8127 31.1951 26.9452 31.25 27.0833 31.25H30.7292C31.0054 31.25 31.2704 31.3597 31.4657 31.5551C31.6611 31.7504 31.7708 32.0154 31.7708 32.2917C31.7708 32.5679 31.6611 32.8329 31.4657 33.0282C31.2704 33.2236 31.0054 33.3333 30.7292 33.3333H27.0833C26.9452 33.3333 26.8127 33.3882 26.7151 33.4859C26.6174 33.5836 26.5625 33.716 26.5625 33.8542V46.875C26.5625 47.7038 26.8917 48.4987 27.4778 49.0847C28.0639 49.6708 28.8587 50 29.6875 50H40.1042C40.933 50 41.7278 49.6708 42.3139 49.0847C42.8999 48.4987 43.2292 47.7038 43.2292 46.875V3.125C43.2292 2.2962 42.8999 1.50134 42.3139 0.915291C41.7278 0.32924 40.933 0 40.1042 0ZM34.8958 40.625C35.4109 40.625 35.9144 40.7777 36.3426 41.0639C36.7709 41.35 37.1047 41.7567 37.3018 42.2326C37.4989 42.7084 37.5505 43.2321 37.45 43.7372C37.3495 44.2424 37.1015 44.7064 36.7373 45.0706C36.3731 45.4348 35.909 45.6828 35.4039 45.7833C34.8987 45.8838 34.3751 45.8322 33.8993 45.6351C33.4234 45.438 33.0167 45.1042 32.7306 44.676C32.4444 44.2477 32.2917 43.7442 32.2917 43.2292C32.2917 42.5385 32.566 41.8761 33.0544 41.3877C33.5428 40.8994 34.2052 40.625 34.8958 40.625ZM12.5 15.625C12.5 15.3487 12.3903 15.0838 12.1949 14.8884C11.9996 14.6931 11.7346 14.5833 11.4583 14.5833H7.29168C7.15354 14.5833 7.02107 14.6382 6.92339 14.7359C6.82572 14.8336 6.77084 14.966 6.77084 15.1042V39.5833C6.77084 39.7215 6.82572 39.8539 6.92339 39.9516C7.02107 40.0493 7.15354 40.1042 7.29168 40.1042H11.4583C11.7346 40.1042 11.9996 39.9944 12.1949 39.7991C12.3903 39.6037 12.5 39.3388 12.5 39.0625V15.625ZM20.3125 15.1042C20.3125 14.966 20.2576 14.8336 20.16 14.7359C20.0623 14.6382 19.9298 14.5833 19.7917 14.5833H15.625C15.3487 14.5833 15.0838 14.6931 14.8884 14.8884C14.6931 15.0838 14.5833 15.3487 14.5833 15.625V39.0625C14.5833 39.3388 14.6931 39.6037 14.8884 39.7991C15.0838 39.9944 15.3487 40.1042 15.625 40.1042H19.7917C19.9298 40.1042 20.0623 40.0493 20.16 39.9516C20.2576 39.8539 20.3125 39.7215 20.3125 39.5833V15.1042Z" fill="#06B6D4"/>
</svg>
